<svg width="104" height="35" viewBox="0 0 104 35" fill="none" xmlns="http://www.w3.org/2000/svg">
<path d="M96.6152 2.34863V7.00101H101.858V11.3211H96.6152V20.1827C96.6152 21.2905 97.0829 21.8443 98.0183 21.8443C98.9784 21.8443 99.4584 21.2535 99.4584 20.072C99.4584 19.4566 99.3722 18.915 99.1999 18.4473H103.557C103.852 19.0627 104 19.8135 104 20.6997C104 22.2505 103.471 23.5797 102.412 24.6874C101.354 25.7951 99.7784 26.349 97.686 26.349C93.3044 26.349 91.1136 24.1213 91.1136 19.6658V11.3211H88.2705V7.00101H91.5198L92.369 2.34863H96.6152Z" fill="#141414"/>
<path d="M5.72316 0.61792V26.4645H0V0.61792H5.72316Z" fill="#141414"/>
<path d="M9.23096 26.3123V7.37052H14.7326V9.95517C16.1603 7.96129 18.1172 6.96436 20.6034 6.96436C25.1081 6.96436 27.3605 9.97978 27.3605 16.0106V26.3123H21.8588V16.1214C21.8588 13.0444 20.6896 11.506 18.3511 11.506C17.1449 11.506 16.2341 11.9367 15.6187 12.7983C15.028 13.6352 14.7326 14.7552 14.7326 16.1583V26.3123H9.23096Z" fill="#141414"/>
<path d="M45.1761 16.3197C45.1761 14.7443 44.733 13.4396 43.8468 12.4058C42.9853 11.3719 41.8037 10.855 40.3022 10.855C38.8745 10.855 37.6929 11.3104 36.7575 12.2211C35.8221 13.1319 35.3544 14.3996 35.3544 16.0243C35.3544 17.772 35.8221 19.1505 36.7575 20.1597C37.6929 21.169 38.9237 21.6736 40.4499 21.6736C41.9022 21.6736 43.0468 21.169 43.8838 20.1597C44.7453 19.1259 45.1761 17.8458 45.1761 16.3197ZM35.5021 34.3753H30.0005V6.79337H35.5021V9.56264C36.9791 7.44568 38.9606 6.38721 41.4468 6.38721C44.253 6.38721 46.493 7.33491 48.1669 9.23033C49.8408 11.1257 50.6777 13.5012 50.6777 16.3566C50.6777 19.1382 49.8654 21.4644 48.2408 23.3352C46.6407 25.2059 44.413 26.1413 41.5576 26.1413C40.3268 26.1413 39.1699 25.8706 38.0868 25.329C37.0283 24.7875 36.1667 24.0613 35.5021 23.1505V34.3753Z" fill="#141414"/>
<path d="M51.3472 16.7202C51.3472 19.6002 52.3687 21.9757 54.4118 23.8465C56.4796 25.6926 58.9288 26.6157 61.7596 26.6157C64.5904 26.6157 67.0274 25.6926 69.0705 23.8465C71.1382 21.9757 72.1721 19.6002 72.1721 16.7202C72.1721 14.2278 71.3844 12.1198 69.809 10.3964L66.1527 14.1117C66.5964 14.8759 66.8182 15.7453 66.8182 16.7202C66.8182 18.1725 66.3259 19.4033 65.3412 20.4126C64.3566 21.3972 63.1627 21.8895 61.7596 21.8895C60.3811 21.8895 59.1873 21.3972 58.178 20.4126C57.1934 19.4279 56.7011 18.1971 56.7011 16.7202C56.7011 15.7524 56.9197 14.8884 57.357 14.1282L53.6549 10.3904C52.1164 12.1111 51.3472 14.221 51.3472 16.7202Z" fill="#141414"/>
<path fill-rule="evenodd" clip-rule="evenodd" d="M60.2895 10.5394V8.82913C60.2895 8.03256 60.9352 7.3868 61.7318 7.3868Lnan nanL61.7318 7.3868C62.5284 7.3868 63.1741 8.03256 63.1741 8.82913V10.5394L66.3267 7.3868C66.89 6.82354 67.8032 6.82354 68.3665 7.3868C68.9298 7.95007 68.9298 8.8633 68.3665 9.42657L62.7517 15.0414C62.1884 15.6047 61.2752 15.6047 60.7119 15.0414L55.0973 9.42657C54.534 8.8633 54.534 7.95007 55.0973 7.3868C55.6605 6.82354 56.5738 6.82354 57.137 7.3868L60.2895 10.5394Z" fill="#141414"/>
<path fill-rule="evenodd" clip-rule="evenodd" d="M60.7117 15.0412L55.0971 9.4264C54.5338 8.86314 54.5338 7.94991 55.0971 7.38664C55.6603 6.82338 56.5736 6.82338 57.1368 7.38664L60.2893 10.5393V8.82897C60.2893 8.61296 60.3368 8.40804 60.4219 8.22408C60.6506 7.72966 61.1511 7.38664 61.7316 7.38664C62.3122 7.38664 62.8127 7.72968 63.0414 8.22412C63.1265 8.40807 63.174 8.61298 63.174 8.82897V10.5393L66.3266 7.38664C66.8898 6.82338 67.8031 6.82338 68.3663 7.38664C68.9296 7.94991 68.9296 8.86314 68.3663 9.4264L62.7515 15.0412C62.1882 15.6045 61.275 15.6045 60.7117 15.0412ZM64.3001 6.96538L65.1027 6.16279C66.3419 4.92361 68.351 4.9236 69.5902 6.16278C70.8294 7.40197 70.8294 9.41108 69.5902 10.6503L63.9754 16.2651C62.7362 17.5043 60.7271 17.5043 59.4879 16.2651L53.8732 10.6503C53.8732 10.6503 53.8732 10.6503 53.8732 10.6503C52.6341 9.41108 52.634 7.40196 53.8732 6.16278C55.1124 4.9236 57.1215 4.9236 58.3607 6.16278L59.1632 6.96531C59.74 6.17176 60.6755 5.65585 61.7316 5.65585C62.7877 5.65585 63.7233 6.17179 64.3001 6.96538Z" fill="#055FE9"/>
<path d="M72.6934 21.8815L76.6811 19.6292C76.9519 20.6384 77.4565 21.3646 78.195 21.8077C78.9335 22.2507 79.7581 22.4723 80.6689 22.4723C81.3335 22.4723 81.912 22.3492 82.4043 22.103C82.8966 21.8569 83.1427 21.5 83.1427 21.0323C83.1427 20.4415 82.6751 19.9615 81.7397 19.5922L78.4165 18.1891C77.3827 17.8199 76.5088 17.3768 75.7949 16.8599C75.1057 16.3183 74.6257 15.7645 74.3549 15.1983C74.0842 14.6075 73.8995 14.1398 73.8011 13.7952C73.7272 13.426 73.6903 13.0814 73.6903 12.7614C73.6903 10.9398 74.3919 9.52439 75.7949 8.51515C77.2227 7.48129 78.995 6.96436 81.112 6.96436C84.2874 6.96436 86.5643 8.29361 87.9428 10.9521L83.6966 12.9091C83.2781 11.7029 82.3797 11.0998 81.0012 11.0998C80.435 11.0998 79.9427 11.2475 79.5242 11.5429C79.1058 11.8137 78.8965 12.1829 78.8965 12.6506C78.8965 13.0444 79.0319 13.3521 79.3027 13.5737C79.5981 13.7952 80.0535 14.0291 80.6689 14.2752L83.512 15.3829C84.5458 15.6783 85.4197 16.0722 86.1336 16.5645C86.8474 17.0568 87.352 17.5861 87.6474 18.1522C87.9428 18.7184 88.1397 19.2107 88.2382 19.6292C88.3367 20.023 88.3859 20.4292 88.3859 20.8476C88.3859 22.6938 87.6474 24.1338 86.1705 25.1677C84.6935 26.2016 82.8474 26.7185 80.6319 26.7185C78.8842 26.7185 77.2719 26.3616 75.7949 25.6477C74.318 24.9092 73.2841 23.6538 72.6934 21.8815Z" fill="#141414"/>
</svg>
